<?xml version="1.0" standalone="no"?>
<!DOCTYPE svg PUBLIC "-//W3C//DTD SVG 20010904//EN"
 "http://www.w3.org/TR/2001/REC-SVG-20010904/DTD/svg10.dtd">
<svg version="1.0" xmlns="http://www.w3.org/2000/svg"
 width="138.000000pt" height="36.000000pt" viewBox="0 0 1035.000000 270.000000"
 preserveAspectRatio="xMidYMid meet">

<g transform="translate(0.000000,270.000000) scale(0.100000,-0.100000)"
fill="#000000" stroke="none">
<path d="M6265 2369 c-66 -11 -159 -43 -210 -73 -57 -34 -121 -107 -134 -152
-16 -57 -15 -1213 1 -1266 18 -61 79 -123 161 -163 154 -75 29 -69 1617 -75
l1425 -5 95 -51 c382 -208 793 -414 811 -409 11 4 24 18 30 32 5 14 9 403 9
972 l0 947 -26 52 c-30 60 -77 101 -166 141 -137 64 -50 61 -1890 60 -920 -1
-1695 -5 -1723 -10z m3453 -105 c97 -20 167 -53 212 -99 l35 -36 3 -888 c1
-489 -1 -897 -5 -908 -7 -18 -44 -1 -418 193 l-410 213 -1420 3 c-1323 3
-1424 4 -1480 21 -87 26 -160 64 -190 98 l-25 31 0 618 0 619 31 35 c17 19 54
46 82 60 120 56 50 54 1850 55 1479 1 1666 -1 1735 -15z"/>
<path d="M6812 1974 c-157 -42 -275 -158 -324 -317 -28 -93 -22 -274 11 -356
52 -129 147 -225 269 -272 80 -31 255 -38 337 -14 214 62 337 217 352 445 16
252 -114 446 -346 514 -68 20 -226 20 -299 0z m274 -172 c23 -12 56 -36 75
-54 115 -115 119 -365 8 -492 -63 -72 -107 -91 -209 -91 -75 0 -91 3 -131 27
-85 50 -130 122 -149 241 -27 172 50 332 184 381 57 22 169 15 222 -12z"/>
<path d="M7570 1495 l0 -485 100 0 100 0 1 363 0 362 182 -362 182 -363 137 0
138 0 0 485 0 485 -100 0 -100 0 -2 -362 -3 -363 -183 363 -182 362 -135 0
-135 0 0 -485z"/>
<path d="M8540 1495 l0 -485 360 0 360 0 0 80 0 80 -255 0 -255 0 0 130 0 130
235 0 235 0 0 75 0 75 -235 0 -235 0 0 120 0 120 250 0 250 0 0 80 0 80 -355
0 -355 0 0 -485z"/>
<path d="M1845 2020 c-73 -10 -161 -40 -222 -76 -108 -63 -214 -208 -243 -333
-16 -70 -8 -231 15 -292 l18 -45 -52 -148 c-53 -153 -59 -184 -39 -204 19 -19
43 -15 209 38 152 48 158 49 197 36 23 -8 75 -20 117 -25 261 -37 520 123 595
368 27 86 27 226 0 313 -75 243 -334 403 -595 368z m196 -116 c262 -76 392
-353 275 -588 -57 -117 -159 -199 -286 -232 -84 -21 -204 -15 -280 16 l-55 22
-117 -38 c-65 -21 -120 -35 -123 -32 -3 3 10 52 29 108 20 56 36 110 36 120 0
9 -9 38 -21 64 -48 110 -32 262 41 374 103 160 317 240 501 186z"/>
<path d="M440 1496 l0 -486 100 0 100 0 0 200 c0 184 1 200 18 200 10 -1 77
-79 170 -200 l153 -200 140 0 140 0 -104 118 c-58 64 -137 153 -176 197 l-72
80 60 12 c74 15 110 33 162 80 152 137 100 376 -97 454 -56 22 -74 23 -326 27
l-268 4 0 -486z m503 310 c48 -20 69 -50 74 -103 3 -36 -1 -56 -17 -81 -32
-52 -70 -62 -225 -62 l-135 0 0 130 0 130 135 0 c92 0 146 -4 168 -14z"/>
<path d="M2620 1673 c0 -330 8 -401 52 -492 31 -64 98 -126 166 -152 86 -34
266 -39 361 -10 79 24 159 87 192 154 50 97 52 114 56 470 l5 337 -106 0 -106
0 0 -332 c0 -367 -2 -380 -66 -440 -39 -36 -74 -48 -141 -48 -80 0 -136 29
-171 88 l-27 47 -3 343 -3 342 -104 0 -105 0 0 -307z"/>
<path d="M3580 1495 l0 -485 100 0 100 0 0 358 1 357 180 -357 181 -358 134 0
134 0 0 485 0 485 -100 0 -100 0 -1 -362 0 -363 -182 363 -182 362 -132 0
-133 0 0 -485z"/>
<path d="M4550 1495 l0 -485 228 0 c256 0 324 10 428 61 135 67 223 191 246
348 32 215 -64 411 -243 498 -106 51 -188 63 -439 63 l-220 0 0 -485z m474
310 c153 -40 237 -168 223 -341 -9 -120 -73 -214 -177 -263 -50 -24 -66 -26
-185 -26 l-130 0 -3 310 c-1 170 0 315 3 322 7 19 195 17 269 -2z"/>
</g>
</svg>
